<svg id="Layer_1" data-name="Layer 1" xmlns="http://www.w3.org/2000/svg" viewBox="0 0 256 256"><defs><style>.cls-1{fill:#00abbe;}.cls-2{fill:#006b94;}.cls-3{fill:#f15d5d;}.cls-4{fill:#f8f8f8;}</style></defs><title>Artboard 1</title><path class="cls-1" d="M115.67,36.4A99.67,99.67,0,0,0,22.94,99.82h1.22a98.38,98.38,0,0,1,183,0h1.22A99.69,99.69,0,0,0,115.67,36.4Z"/><path class="cls-1" d="M21.05,99.82a106.07,106.07,0,0,1,204.63,0h1.18a107.21,107.21,0,0,0-207,0Z"/><path class="cls-1" d="M226.62,152a106.35,106.35,0,0,1-87.84,80.67A99.8,99.8,0,0,0,213.87,152h-1.14a98.59,98.59,0,0,1-87.3,81.77l-2.07,0A106.23,106.23,0,0,1,20.11,152H18.94a107.47,107.47,0,0,0,90.82,82.07A98.53,98.53,0,0,1,18.63,152H17.48a99.65,99.65,0,0,0,98.19,83.38q5,0,9.81-.48A107.39,107.39,0,0,0,227.78,152Z"/><path class="cls-2" d="M20.76,147.61a20,20,0,0,1-14.68-6.08,20.76,20.76,0,0,1,0-29.36,20,20,0,0,1,14.68-6.08,20,20,0,0,1,14.67,6.08,20.76,20.76,0,0,1,0,29.36A20,20,0,0,1,20.76,147.61Zm0-38.07a16.63,16.63,0,0,0-12.22,5.09,17.26,17.26,0,0,0,0,24.44,16.64,16.64,0,0,0,12.22,5.06A16.62,16.62,0,0,0,33,139.07a17.19,17.19,0,0,0,0-24.44A16.61,16.61,0,0,0,20.76,109.54Z"/><path class="cls-2" d="M69.68,147.61A20.77,20.77,0,0,1,55,112.12,19.94,19.94,0,0,1,69.68,106a20.22,20.22,0,0,1,12.68,4.31,1.64,1.64,0,0,1,.67,1.16,1.68,1.68,0,0,1-.35,1.27,1.64,1.64,0,0,1-1.16.67,1.49,1.49,0,0,1-1.27-.35,17,17,0,0,0-10.57-3.56A17.3,17.3,0,0,0,57.46,139a17.36,17.36,0,0,0,23.89.58,1.66,1.66,0,0,1,1.24-.47,1.71,1.71,0,0,1,1.22.58,1.65,1.65,0,0,1,.46,1.25,1.63,1.63,0,0,1-.58,1.21A20.1,20.1,0,0,1,69.68,147.61Z"/><path class="cls-2" d="M94.55,147.61a1.65,1.65,0,0,1-1.22-.52,1.61,1.61,0,0,1-.52-1.22v-38.1a1.59,1.59,0,0,1,.52-1.21,1.52,1.52,0,0,1,1.22-.52l23,0a1.6,1.6,0,0,1,1.22.53,1.64,1.64,0,0,1,.52,1.21,1.71,1.71,0,0,1-.52,1.25,1.68,1.68,0,0,1-1.22.49l-21.25-.06v15.58h15.9a1.78,1.78,0,0,1,1.73,1.73,1.61,1.61,0,0,1-.52,1.22,1.57,1.57,0,0,1-1.21.52H96.28v15.57h21.25a1.63,1.63,0,0,1,1.22.52,1.69,1.69,0,0,1,0,2.44,1.63,1.63,0,0,1-1.22.52Z"/><path class="cls-2" d="M126.39,147.46a1.55,1.55,0,0,1-.92-.92,1.57,1.57,0,0,1,0-1.34l4-9.69v0l11.72-28.29c0-.09.09-.2.15-.31l.11-.12.12-.14.14-.12.12-.09a1.63,1.63,0,0,1,.61-.26h.14l.21,0,.17,0h.14a1.58,1.58,0,0,1,.64.26l.12.09c.07.08.12.12.14.12a1.2,1.2,0,0,1,.12.14c.07.1.11.14.11.12s.11.22.15.31l11.72,28.29v0l4,9.69a1.65,1.65,0,0,1,0,1.34,1.59,1.59,0,0,1-.93.92,1.53,1.53,0,0,1-.67.15,1.59,1.59,0,0,1-1.59-1.07l-3.59-8.63H132.24l-3.59,8.63a1.59,1.59,0,0,1-1.59,1.07h-.35Zm25.56-13-9.14-22.06-9.15,22.06Z"/><path class="cls-2" d="M197.75,147l0,0,0,0-26.48-34.13v33.06a1.8,1.8,0,0,1-1.74,1.74,1.65,1.65,0,0,1-1.22-.52,1.61,1.61,0,0,1-.52-1.22V107.74a1.62,1.62,0,0,1,1.16-1.65,1.6,1.6,0,0,1,1.94.58l26.52,34.13V107.74a1.72,1.72,0,0,1,1.7-1.73,1.69,1.69,0,0,1,1.25.52,1.64,1.64,0,0,1,.49,1.21V146a.55.55,0,0,1,0,.17.49.49,0,0,1,0,.15l0,.17-.06.14a.38.38,0,0,1-.09.15.8.8,0,0,1-.09.14,1,1,0,0,1-.11.15l-.12.11c-.09.08-.12.1-.08.06s0,0-.06.06l-.09.06a.51.51,0,0,1-.17.08l-.12.06-.2.06-.12,0-.32,0a2,2,0,0,1-.34,0l-.12,0-.23-.09-.12-.08-.2-.12-.11-.09-.09-.08Z"/><path class="cls-3" d="M232.22,144.52a12.73,12.73,0,0,1-9.31,3.44c-4.38,0-7.59-1.54-9.42-3.38-2.61-2.6-3.21-5.69-3.44-8.77h7.7c.42,3.32,2,5.22,5.16,5.22a5,5,0,0,0,3.68-1.37c1.36-1.36,1.66-3.61,1.66-6.28,0-4.86-1.42-7.59-5.16-7.59a4.91,4.91,0,0,0-5.1,3.44h-7.05V105.39H235v6.94H217.93v9.07a9.68,9.68,0,0,1,6.35-2.13,10.87,10.87,0,0,1,7.88,2.84c3.32,3.32,3.8,7.3,3.8,11.27C236,138.12,235.3,141.44,232.22,144.52Z"/><path class="cls-3" d="M248.14,105.27h6a1.88,1.88,0,0,1,1.88,1.88v6a6.29,6.29,0,0,1-6.29,6.29h-1.57a6.29,6.29,0,0,1-6.29-6.29v-1.57a6.29,6.29,0,0,1,6.29-6.29Z" transform="matrix(0, 1, -1, 0, 361.27, -136.58)"/><path class="cls-4" d="M247.38,111.86c0,.65-.36.67-.73.67h-1.78v.25c0,.6.48,1,1.16,1s.78-.31,1-.31a.31.31,0,0,1,.28.31c0,.21-.5.57-1.29.57a1.62,1.62,0,0,1-1.81-1.58v-.85a1.6,1.6,0,0,1,1.62-1.54A1.52,1.52,0,0,1,247.38,111.86Zm-1,.22c.28,0,.36,0,.36-.26a.94.94,0,0,0-.93-.93.92.92,0,0,0-.94.89v.3Z"/><path class="cls-4" d="M249.84,111a1.1,1.1,0,0,0-1,1.2V114c0,.12-.16.24-.35.24s-.33-.12-.33-.24v-3.39c0-.14.14-.23.33-.23s.31.09.31.23V111a1.24,1.24,0,0,1,1.07-.67h.28a.29.29,0,0,1,.26.31.29.29,0,0,1-.26.3Z"/><path class="cls-4" d="M253.66,111.94V114c0,.13-.14.24-.34.24s-.31-.11-.31-.24v-.33a1.6,1.6,0,0,1-1.23.63,1,1,0,0,1-1.1-1.08c0-.9.77-1.13,1.91-1.13H253V112a.91.91,0,0,0-.9-1,2.41,2.41,0,0,0-.89.23c-.16,0-.25-.19-.25-.34s.62-.47,1.16-.47A1.44,1.44,0,0,1,253.66,111.94Zm-.68.59h-.29c-.69,0-1.33.07-1.33.65a.57.57,0,0,0,.63.61,1.06,1.06,0,0,0,1-.83Z"/></svg>